<?xml version="1.0" standalone="no"?>
<!DOCTYPE svg PUBLIC "-//W3C//DTD SVG 20010904//EN"
 "http://www.w3.org/TR/2001/REC-SVG-20010904/DTD/svg10.dtd">
<svg version="1.0" xmlns="http://www.w3.org/2000/svg"
 width="512.000000pt" height="512.000000pt" viewBox="0 0 512.000000 512.000000"
 preserveAspectRatio="xMidYMid meet">

<g transform="translate(0.000000,512.000000) scale(0.100000,-0.100000)"
fill="#9ca3af" stroke="#9ca3af">
<path d="M2375 4794 c-376 -39 -726 -158 -1015 -345 l-75 -48 -6 70 c-9 110
-61 164 -159 164 -63 0 -95 -16 -134 -69 -20 -26 -21 -40 -21 -326 0 -286 1
-300 21 -326 11 -15 33 -37 48 -48 26 -20 40 -21 326 -21 286 0 300 1 326 21
53 39 69 71 69 134 0 44 -5 66 -21 86 -39 53 -69 68 -152 74 l-77 5 80 47
c748 439 1689 329 2308 -271 176 -170 288 -324 393 -536 364 -741 218 -1624
-365 -2206 -398 -396 -936 -598 -1493 -558 -362 26 -688 144 -998 363 -107 76
-328 295 -410 406 -232 316 -354 664 -378 1078 -9 142 -16 162 -76 206 -39 29
-133 29 -172 0 -74 -55 -84 -106 -65 -326 46 -520 259 -987 620 -1361 350
-362 769 -579 1286 -663 151 -25 494 -25 652 -1 472 74 887 279 1223 603 358
346 577 764 662 1264 26 151 31 512 10 645 -89 544 -300 960 -668 1315 -333
321 -735 524 -1194 600 -121 21 -443 34 -545 24z"/>
<path d="M2375 3989 c-619 -85 -1108 -548 -1232 -1166 -24 -122 -24 -404 0
-526 105 -524 474 -943 975 -1107 154 -50 249 -64 432 -65 256 0 437 41 656
151 400 199 684 578 771 1029 24 125 24 397 0 518 -59 293 -192 543 -402 752
-208 209 -461 344 -747 400 -99 20 -355 28 -453 14z m330 -319 c375 -54 690
-279 858 -615 80 -161 112 -303 111 -500 0 -129 -4 -165 -27 -259 -94 -376
-376 -681 -738 -799 -357 -117 -756 -44 -1049 191 -472 377 -556 1064 -191
1550 238 315 650 487 1036 432z"/>
<path d="M2495 3506 c-41 -18 -83 -69 -90 -109 -3 -18 -5 -226 -3 -464 3 -416
4 -433 23 -460 12 -15 141 -108 287 -207 300 -201 315 -207 398 -164 87 44
114 157 56 232 -13 17 -118 94 -234 171 l-211 140 -3 387 c-3 372 -4 388 -24
414 -11 15 -32 37 -46 47 -33 25 -113 32 -153 13z"/>
</g>
</svg>
